<?xml version="1.0" encoding="utf-8"?>
<!-- Generator: Adobe Illustrator 26.0.1, SVG Export Plug-In . SVG Version: 6.00 Build 0)  -->
<svg version="1.1" id="Layer_1" xmlns="http://www.w3.org/2000/svg" xmlns:xlink="http://www.w3.org/1999/xlink" x="0px" y="0px"
	 viewBox="0 0 40 40" style="enable-background:new 0 0 40 40;" xml:space="preserve">
<style type="text/css">
	.st0{fill:#E1F9E1;}
</style>
<g>
	<path class="st0" d="M12.7,38.2c-2.1,0-3.9,0-4.9-0.1c-0.3,0-0.5-0.3-0.4-0.5l0.1-1c0-0.3,0.2-0.5,0.5-0.5c0,0,0,0,0,0
		c0.9,0.1,2.6,0.1,5,0.1c4.7,0,10.9-0.2,13.3-0.2c0.9,0,1.8-0.2,2.5-0.5c2.1-1.1,3.3-3.3,3.2-5.7c-0.1-1.8-1.4-3.5-3.2-4
		c-0.6-0.2-1.3-0.3-1.9-0.3c-0.2,0-0.4,0-0.6,0L11,25.8c-1.8,0-3.6-1-4.4-2.6c-0.8-1.8-0.7-3.8,0.3-5.3c0.8-1.3,2.3-2,3.8-2
		c0.1,0,0.2,0,0.3,0l14.5,0c1.5-0.1,2.6-0.6,2.9-1.5c0.2-1.2-0.4-2.3-1.4-2.8c-0.9-0.5-1.8-0.8-2.7-0.8H13.8c-0.9,0-1.6-0.2-2.2-0.6
		c-1.4-0.8-2.1-2-2.1-3.7c0-2.5,1.3-3.6,2.4-4.1C12.5,2.1,13,2,13.6,2h5.8c0.3,0,0.5,0.2,0.5,0.5v1c0,0.3-0.2,0.5-0.5,0.5h-5.6
		c-0.9,0-1.8,0.5-2.2,1.1c-0.2,0.4-0.3,0.8-0.2,1.3c0,0,0,0.1,0,0.1c-0.1,1.1,0.7,2.1,1.8,2.3l10.8,0c1.4,0,2.6,0.4,3.8,1.1
		c1.8,1.2,2.8,3.2,2.3,5c-0.6,1.8-2.3,2.9-4.8,3l-14.4,0c-0.1,0-0.2,0-0.3,0c-0.9,0-1.7,0.4-2.1,1.2c-0.7,1-0.8,2.3-0.3,3.4
		c0.5,0.9,1.5,1.5,2.6,1.5l15.3-0.4c0.2,0,0.3,0,0.5,0c0.8,0,1.6,0.1,2.6,0.4c2.6,0.8,4.4,3,4.7,5.7c0.2,3.1-1.5,6.1-4.3,7.6
		c-1,0.5-2.1,0.8-3.3,0.8c-0.5,0-1.2,0-1.9,0c-1.4,0-3.3,0-5.2,0.1C17.1,38.2,14.7,38.2,12.7,38.2z"/>
	<path class="st0" d="M19.4,2.5v1h-5.6c-1,0-2.1,0.5-2.6,1.4c-0.2,0.5-0.4,1-0.3,1.6c-0.1,1.4,0.9,2.6,2.2,2.8H24
		c1.2,0,2.4,0.3,3.5,1c1.7,1.1,2.5,2.9,2.1,4.5c-0.5,1.6-2,2.5-4.3,2.6H10.9c-0.1,0-0.2,0-0.3,0c-1,0-2,0.5-2.5,1.4
		c-0.8,1.1-0.9,2.6-0.3,3.9c0.6,1.1,1.8,1.8,3.1,1.8l15.3-0.4c0.2,0,0.4,0,0.5,0c0.8,0,1.6,0.2,2.5,0.4c2.4,0.7,4.1,2.8,4.3,5.3
		c0.2,2.9-1.4,5.7-4,7.1c-1,0.5-2,0.7-3.1,0.7c-0.5,0-1.2,0-1.9,0c-3.1,0-7.9,0.1-11.8,0.1c-2.1,0-3.9,0-4.8-0.1l0.1-1
		c1,0.1,2.9,0.1,5.1,0.1c4.7,0,10.9-0.2,13.3-0.2c0.9,0,1.9-0.2,2.7-0.6c2.3-1.2,3.6-3.6,3.5-6.2c-0.1-2.1-1.6-3.9-3.6-4.5
		c-0.7-0.2-1.4-0.3-2-0.3c-0.2,0-0.5,0-0.7,0L11,25.3c-1.6,0-3.2-0.9-4-2.3c-0.7-1.6-0.6-3.4,0.3-4.8c0.7-1.1,2-1.8,3.3-1.8
		c0.1,0,0.2,0,0.3,0h14.5c1.8-0.1,3-0.8,3.4-1.9c0.2-1.4-0.4-2.8-1.7-3.4c-0.9-0.5-1.9-0.8-2.9-0.8H13.8c-0.6,0-1.3-0.1-1.9-0.5
		C11,9.3,10,8.4,10,6.5c0-2.3,1.2-3.2,2.1-3.7c0.5-0.2,1-0.3,1.5-0.3H19.4 M19.4,1.5h-5.8c-0.6,0-1.3,0.1-1.9,0.4c0,0-0.1,0-0.1,0.1
		C11,2.3,9,3.4,9,6.5c0,1.9,0.8,3.3,2.4,4.2c0.7,0.4,1.5,0.6,2.4,0.6h10.4c0.8,0,1.6,0.2,2.4,0.7c0,0,0,0,0.1,0
		c0.8,0.4,1.2,1.2,1.1,2.2c-0.3,0.7-1.2,1.1-2.5,1.2H10.9c-0.1,0-0.2,0-0.3,0c-1.6,0-3.2,0.9-4.2,2.3c-1.1,1.7-1.2,3.8-0.4,5.8
		c0,0,0,0.1,0,0.1c1,1.7,2.9,2.8,4.9,2.8l15.3-0.4c0,0,0.1,0,0.1,0c0.2,0,0.4,0,0.6,0c0.6,0,1.1,0.1,1.7,0.3c1.7,0.5,2.8,2,2.9,3.6
		c0.1,2.2-1,4.3-3,5.3c-0.6,0.3-1.4,0.5-2.2,0.5c-1.9,0.1-8.4,0.2-13.3,0.2c-2.4,0-4.1,0-5-0.1c0,0-0.1,0-0.1,0
		c-0.5,0-0.9,0.4-1,0.9l-0.1,1c-0.1,0.5,0.3,1,0.9,1.1c1,0.1,2.8,0.1,4.9,0.1c2,0,4.3,0,6.5-0.1c2,0,3.8-0.1,5.2-0.1
		c0.8,0,1.4,0,1.9,0c0,0,0,0,0,0c1.4,0,2.5-0.3,3.6-0.8c3-1.6,4.8-4.8,4.6-8.1c-0.2-2.9-2.2-5.4-5-6.2c-1.1-0.3-1.9-0.5-2.7-0.5
		c-0.2,0-0.4,0-0.6,0l-15.3,0.4c-0.9,0-1.8-0.5-2.2-1.3c-0.4-1-0.4-2.1,0.2-2.9c0,0,0,0,0-0.1c0.3-0.6,1-0.9,1.7-0.9
		c0.1,0,0.1,0,0.2,0c0,0,0.1,0,0.1,0h14.4c2.8-0.1,4.6-1.3,5.3-3.3c0,0,0,0,0-0.1c0.5-2-0.5-4.3-2.5-5.6c-1.2-0.8-2.6-1.2-4-1.2
		H13.2c-0.8-0.2-1.3-0.9-1.3-1.7c0-0.1,0-0.2,0-0.2c0-0.3,0-0.6,0.2-1c0.3-0.5,1-0.8,1.7-0.8h5.6c0.6,0,1-0.4,1-1v-1
		C20.4,1.9,20,1.5,19.4,1.5L19.4,1.5z"/>
</g>
</svg>
