<svg id="Layer_1" data-name="Layer 1" xmlns="http://www.w3.org/2000/svg" viewBox="0 0 34.47 39.692"><path d="M37.165,21.878a21.381,21.381,0,0,1-2.04,9.332,22.141,22.141,0,0,1-3.553,5.75,9.314,9.314,0,0,1-3.1,2.463,5.351,5.351,0,0,1-2.632.392,9.312,9.312,0,0,1-4.372-1.495,2.657,2.657,0,0,0-2.987-.007A9.356,9.356,0,0,1,15.546,39.6,6.864,6.864,0,0,1,12,39.623a7.06,7.06,0,0,1-2.644-1.651,18.684,18.684,0,0,1-3.666-4.977,25.623,25.623,0,0,1-2.629-7.373,17.881,17.881,0,0,1-.275-3.974,26.527,26.527,0,0,1,.572-4.872,13.031,13.031,0,0,1,2.486-5.5A8.537,8.537,0,0,1,11.18,8.189a11.341,11.341,0,0,1,4.954.45c.882.237,1.768.466,2.66.659a7.405,7.405,0,0,0,3.447-.232c1.124-.288,2.242-.611,3.38-.826a8.8,8.8,0,0,1,9.542,4.444,14.618,14.618,0,0,1,1.623,4.988c.2,1.393.3,2.8.45,4.2Zm-2.638,0c-.019-.352-.039-.7-.056-1.056a19.7,19.7,0,0,0-.754-4.758A8.255,8.255,0,0,0,31.9,12.643a6.153,6.153,0,0,0-6-1.766c-1.2.237-2.384.6-3.58.888a8.5,8.5,0,0,1-3.642.182c-1.1-.219-2.193-.489-3.282-.766a9.024,9.024,0,0,0-3.7-.4,5.927,5.927,0,0,0-3.727,2.06,9.669,9.669,0,0,0-1.857,3.782,22.448,22.448,0,0,0-.694,5.381,14.244,14.244,0,0,0,.225,3.052A22.91,22.91,0,0,0,9.6,34.268a9.951,9.951,0,0,0,2.249,2.33,2.537,2.537,0,0,0,1.363.587,5.9,5.9,0,0,0,3.13-.7c.415-.23.827-.468,1.248-.688a5.106,5.106,0,0,1,3.2-.523,5.886,5.886,0,0,1,2.17.852,6.935,6.935,0,0,0,2.956,1.045A2.708,2.708,0,0,0,28,36.652,14.6,14.6,0,0,0,29.7,35.069a19.311,19.311,0,0,0,3.161-5.279A18.584,18.584,0,0,0,34.527,21.874Z" transform="translate(-2.767 -0.155)" fill="#fff"/><path d="M27.907.9a7.78,7.78,0,0,1-1.043,3.134,8.2,8.2,0,0,1-5.912,4.008c-.035.006-.069.015-.1.021a.676.676,0,0,1-.869-.8,8.086,8.086,0,0,1,2.846-5.256A7.676,7.676,0,0,1,26.983.167C27.556.1,27.915.355,27.907.9Z" transform="translate(-2.767 -0.155)" fill="#fff"/><path d="M14.667,24.19a6.607,6.607,0,0,1,.7-3.226,2.847,2.847,0,0,1,.316-.453,1.162,1.162,0,0,1,1.953.019,4.5,4.5,0,0,1,.694,1.344,6.83,6.83,0,0,1-.107,4.5,3.835,3.835,0,0,1-.532.962,1.2,1.2,0,0,1-2.061.014,4.059,4.059,0,0,1-.787-1.821C14.747,25.017,14.706,24.49,14.667,24.19Z" transform="translate(-2.767 -0.155)" fill="#fff"/><path d="M25.277,23.7a6.62,6.62,0,0,1-.718,3.282,2.726,2.726,0,0,1-.471.6,1.1,1.1,0,0,1-1.629,0,3.192,3.192,0,0,1-.86-1.517,6.923,6.923,0,0,1,.237-4.8,3.074,3.074,0,0,1,.646-.918,1.08,1.08,0,0,1,1.6,0,3.349,3.349,0,0,1,.951,1.818C25.169,22.757,25.228,23.371,25.277,23.7Z" transform="translate(-2.767 -0.155)" fill="#fff"/></svg>