<?xml version="1.0" encoding="utf-8"?>
<!-- Generator: Adobe Illustrator 26.0.1, SVG Export Plug-In . SVG Version: 6.00 Build 0)  -->
<svg version="1.1" id="Layer_1" xmlns="http://www.w3.org/2000/svg" xmlns:xlink="http://www.w3.org/1999/xlink" x="0px" y="0px"
	 viewBox="0 0 40 40" style="enable-background:new 0 0 40 40;" xml:space="preserve">
<style type="text/css">
	.st0{fill:#FCD2D2;stroke:#FCD2D2;stroke-width:0.5;stroke-miterlimit:10;}
</style>
<g>
	<path class="st0" d="M25.3,13L25,12.8c-0.3-0.3-0.8-0.3-1.1,0l-2.1,2.1L7.9,1.2C7.3,0.6,6.4,0.5,5.7,1l0,0C5,1.6,4.9,2.7,5.5,3.4
		l0.1,0.1l14.1,13.7l-2,2c-0.3,0.3-0.3,0.8,0,1.1l0.2,0.2c0.3,0.3,0.8,0.3,1.1,0l6.2-6.4C25.5,13.8,25.5,13.3,25.3,13z"/>
	<path class="st0" d="M19.1,24.3c-0.3,0-0.5-0.1-0.7-0.3c-0.4-0.4-0.4-1,0-1.4l8.6-9c0.5-0.3,1.1-0.2,1.4,0.3c0.2,0.3,0.2,0.7,0,1
		l-8.6,9C19.6,24.2,19.4,24.3,19.1,24.3z"/>
	<path class="st0" d="M21,26.8c-0.3,0-0.5-0.1-0.7-0.3c-0.4-0.4-0.4-1,0-1.4l9.5-9.9c0.4-0.3,1.1-0.3,1.4,0.2c0.3,0.4,0.3,0.8,0,1.2
		l-9.5,9.9C21.5,26.7,21.3,26.8,21,26.8z"/>
	<path class="st0" d="M34.9,20.8c-0.3-2-1.7-0.4-1.7-0.4S27,26.9,26,27.9c-1.7,1.5-1.5-0.1-1.5-0.1l8.8-9.2c0.3-0.4,0.2-1.1-0.2-1.4
		s-0.9-0.2-1.2,0l-9.5,9.9c-0.1,0.1-0.2,0.3-0.2,0.4c-0.7,1.2,0.1,2.5,0.6,3.2c0.6,1.4,0.7,2.9,0.1,4.3c-0.7,3.4,1.7,4.1,2.7,4.3
		c0.3,0,0.5,0,0.8,0c3.5-1,2.3-4.3,2.1-4.9c-0.6-2,0.3-4.2,2-5.3c1.1-1.1,2.1-2.2,2.1-2.2C34.2,25.3,35,23.1,34.9,20.8z"/>
</g>
</svg>
